<svg xmlns="http://www.w3.org/2000/svg" width="24" height="24" viewBox="0 0 24 24" fill="none">
  <path d="M20.25 7.00101H3.75C3.33579 7.00101 3 7.33679 3 7.75101C3 8.16522 3.33579 8.50101 3.75 8.50101H20.25C20.6642 8.50101 21 8.16522 21 7.75101C21 7.33679 20.6642 7.00101 20.25 7.00101Z" fill="#B37917"/>
  <path d="M17.25 11.251H3.75C3.33579 11.251 3 11.5868 3 12.001C3 12.4152 3.33579 12.751 3.75 12.751H17.25C17.6642 12.751 18 12.4152 18 12.001C18 11.5868 17.6642 11.251 17.25 11.251Z" fill="#B37917"/>
  <path d="M20.25 15.499H3.75C3.33579 15.499 3 15.8348 3 16.249C3 16.6632 3.33579 16.999 3.75 16.999H20.25C20.6642 16.999 21 16.6632 21 16.249C21 15.8348 20.6642 15.499 20.25 15.499Z" fill="#B37917"/>
</svg>