<svg width="32" height="32" viewBox="0 0 32 32" fill="none" xmlns="http://www.w3.org/2000/svg">
<circle cx="16" cy="16" r="15.5" stroke="#201C1C"/>
<path d="M21.5345 9.39697C20.92 9.39697 20.4229 9.89409 20.4229 10.5086C20.4229 11.1231 20.92 11.6202 21.5345 11.6202C22.149 11.6202 22.6461 11.1231 22.6461 10.5086C22.653 9.89409 22.149 9.39697 21.5345 9.39697Z" fill="#201C1C"/>
<path d="M16.5836 10.8262C14.0013 10.8262 11.9023 12.9251 11.9023 15.5074C11.9023 18.0897 14.0013 20.1886 16.5836 20.1886C19.1658 20.1886 21.2648 18.0897 21.2648 15.5074C21.2648 12.9251 19.1658 10.8262 16.5836 10.8262ZM16.5836 18.5039C14.9334 18.5039 13.587 17.1576 13.587 15.5074C13.587 13.8572 14.9334 12.5109 16.5836 12.5109C18.2337 12.5109 19.5801 13.8572 19.5801 15.5074C19.5801 17.1576 18.2337 18.5039 16.5836 18.5039Z" fill="#201C1C"/>
<path d="M20.298 25.0079H12.71C9.56155 25.0079 7 22.4464 7 19.298V11.71C7 8.56155 9.56155 6 12.71 6H20.298C23.4464 6 26.0079 8.56155 26.0079 11.71V19.298C26.0079 22.4464 23.4464 25.0079 20.298 25.0079ZM12.71 7.78825C10.5489 7.78825 8.78825 9.54889 8.78825 11.71V19.298C8.78825 21.4591 10.5489 23.2197 12.71 23.2197H20.298C22.4591 23.2197 24.2197 21.4591 24.2197 19.298V11.71C24.2197 9.54889 22.4591 7.78825 20.298 7.78825H12.71Z" fill="#201C1C"/>
</svg>
